<svg width="11" height="8" viewBox="0 0 11 8" fill="none" xmlns="http://www.w3.org/2000/svg">
<path d="M10.3979 1.27299L4.39795 7.27299C4.34569 7.32543 4.28359 7.36704 4.21522 7.39543C4.14685 7.42382 4.07354 7.43843 3.99951 7.43843C3.92548 7.43843 3.85217 7.42382 3.7838 7.39543C3.71543 7.36704 3.65333 7.32543 3.60107 7.27299L0.976073 4.64799C0.92375 4.59566 0.882244 4.53355 0.853927 4.46518C0.82561 4.39682 0.811035 4.32355 0.811035 4.24955C0.811035 4.17555 0.82561 4.10228 0.853927 4.03392C0.882244 3.96555 0.92375 3.90344 0.976073 3.85111C1.0284 3.79879 1.09051 3.75728 1.15888 3.72897C1.22724 3.70065 1.30051 3.68607 1.37451 3.68607C1.44851 3.68607 1.52178 3.70065 1.59014 3.72897C1.65851 3.75728 1.72062 3.79879 1.77295 3.85111L3.99998 6.07814L9.60201 0.47705C9.70768 0.371378 9.851 0.312012 10.0004 0.312012C10.1499 0.312012 10.2932 0.371378 10.3989 0.47705C10.5046 0.582722 10.5639 0.726044 10.5639 0.875488C10.5639 1.02493 10.5046 1.16825 10.3989 1.27393L10.3979 1.27299Z" fill="white"/>
</svg>
