<svg width="16" height="17" viewBox="0 0 16 17" fill="none" xmlns="http://www.w3.org/2000/svg">
<path d="M13.8668 5.6975C14.5606 7.14863 14.6923 8.80533 14.2365 10.3479C13.7807 11.8904 12.7696 13.2094 11.3985 14.0503C10.0274 14.8912 8.39333 15.1944 6.81177 14.9014C5.23022 14.6084 3.81325 13.74 2.83436 12.4637C1.85547 11.1874 1.38404 9.59372 1.51105 7.99027C1.63807 6.38683 2.35453 4.88727 3.52215 3.78101C4.68978 2.67474 6.2258 2.0402 7.83376 1.99985C9.44173 1.9595 11.0076 2.5162 12.2293 3.5625L13.6462 2.145C13.74 2.05118 13.8672 1.99848 13.9999 1.99848C14.1326 1.99848 14.2598 2.05118 14.3537 2.145C14.4475 2.23882 14.5002 2.36607 14.5002 2.49875C14.5002 2.63144 14.4475 2.75868 14.3537 2.8525L8.35366 8.8525C8.25984 8.94633 8.13259 8.99903 7.99991 8.99903C7.86723 8.99903 7.73998 8.94633 7.64616 8.8525C7.55234 8.75868 7.49963 8.63144 7.49963 8.49875C7.49963 8.36607 7.55234 8.23882 7.64616 8.145L9.37866 6.4125C8.90913 6.10198 8.34854 5.959 7.78764 6.00672C7.22674 6.05444 6.69836 6.29007 6.28804 6.67546C5.87772 7.06084 5.60948 7.57343 5.52673 8.13024C5.44399 8.68705 5.55158 9.2555 5.83211 9.74355C6.11263 10.2316 6.54966 10.6107 7.07244 10.8194C7.59523 11.0282 8.17317 11.0544 8.71271 10.8939C9.25224 10.7333 9.7218 10.3953 10.0454 9.93466C10.3689 9.47401 10.5275 8.91765 10.4955 8.35563C10.4918 8.28997 10.5011 8.22422 10.5228 8.16215C10.5445 8.10007 10.5783 8.04288 10.6221 7.99384C10.6659 7.9448 10.719 7.90487 10.7782 7.87633C10.8375 7.84779 10.9017 7.8312 10.9674 7.8275C11.1 7.82005 11.2302 7.86557 11.3292 7.95406C11.3782 7.99788 11.4182 8.05093 11.4467 8.11018C11.4753 8.16943 11.4918 8.23372 11.4955 8.29938C11.5411 9.09487 11.3139 9.8821 10.8515 10.531C10.389 11.1798 9.71902 11.6515 8.9522 11.868C8.18538 12.0844 7.36765 12.0328 6.63415 11.7216C5.90066 11.4103 5.29532 10.8581 4.91817 10.1563C4.54102 9.45439 4.41465 8.64483 4.55995 7.86139C4.70524 7.07796 5.1135 6.36755 5.71725 5.84758C6.32099 5.32762 7.08408 5.02921 7.8804 5.0017C8.67672 4.97418 9.45859 5.2192 10.0968 5.69625L11.5187 4.27438C10.4767 3.40925 9.15177 2.95961 7.79844 3.0118C6.44512 3.064 5.1588 3.61436 4.18653 4.55717C3.21426 5.49999 2.6246 6.76878 2.53081 8.11985C2.43702 9.47093 2.84571 10.809 3.67838 11.8771C4.51106 12.9453 5.709 13.6681 7.04213 13.9067C8.37526 14.1454 9.74958 13.8832 10.9011 13.1703C12.0527 12.4575 12.9002 11.3443 13.281 10.0446C13.6618 8.7449 13.549 7.35034 12.9643 6.12875C12.9071 6.00908 12.8998 5.87158 12.944 5.74652C12.9882 5.62145 13.0802 5.51907 13.1999 5.46188C13.3196 5.40469 13.4571 5.39739 13.5821 5.44158C13.7072 5.48577 13.8096 5.57783 13.8668 5.6975Z" fill="white"/>
</svg>
