<svg width="16" height="17" viewBox="0 0 16 17" fill="none" xmlns="http://www.w3.org/2000/svg">
<path d="M14 8.50003C14 8.63264 13.9474 8.75982 13.8536 8.85359C13.7598 8.94736 13.6326 9.00003 13.5 9.00003H8.00003C7.86743 9.00003 7.74025 8.94736 7.64648 8.85359C7.55271 8.75982 7.50003 8.63264 7.50003 8.50003C7.50003 8.36743 7.55271 8.24025 7.64648 8.14648C7.74025 8.05271 7.86743 8.00003 8.00003 8.00003H13.5C13.6326 8.00003 13.7598 8.05271 13.8536 8.14648C13.9474 8.24025 14 8.36743 14 8.50003ZM8.00003 5.00003H13.5C13.6326 5.00003 13.7598 4.94736 13.8536 4.85359C13.9474 4.75982 14 4.63264 14 4.50003C14 4.36743 13.9474 4.24025 13.8536 4.14648C13.7598 4.05271 13.6326 4.00003 13.5 4.00003H8.00003C7.86743 4.00003 7.74025 4.05271 7.64648 4.14648C7.55271 4.24025 7.50003 4.36743 7.50003 4.50003C7.50003 4.63264 7.55271 4.75982 7.64648 4.85359C7.74025 4.94736 7.86743 5.00003 8.00003 5.00003ZM13.5 12H8.00003C7.86743 12 7.74025 12.0527 7.64648 12.1465C7.55271 12.2402 7.50003 12.3674 7.50003 12.5C7.50003 12.6326 7.55271 12.7598 7.64648 12.8536C7.74025 12.9474 7.86743 13 8.00003 13H13.5C13.6326 13 13.7598 12.9474 13.8536 12.8536C13.9474 12.7598 14 12.6326 14 12.5C14 12.3674 13.9474 12.2402 13.8536 12.1465C13.7598 12.0527 13.6326 12 13.5 12ZM5.14628 3.14628L3.50003 4.79316L2.85378 4.14628C2.75996 4.05246 2.63272 3.99976 2.50003 3.99976C2.36735 3.99976 2.2401 4.05246 2.14628 4.14628C2.05246 4.2401 1.99976 4.36735 1.99976 4.50003C1.99976 4.63272 2.05246 4.75996 2.14628 4.85378L3.14628 5.85378C3.19272 5.90027 3.24786 5.93715 3.30856 5.96231C3.36926 5.98748 3.43433 6.00043 3.50003 6.00043C3.56574 6.00043 3.63081 5.98748 3.6915 5.96231C3.7522 5.93715 3.80735 5.90027 3.85378 5.85378L5.85378 3.85378C5.9476 3.75996 6.00031 3.63272 6.00031 3.50003C6.00031 3.36735 5.9476 3.2401 5.85378 3.14628C5.75996 3.05246 5.63272 2.99976 5.50003 2.99976C5.36735 2.99976 5.2401 3.05246 5.14628 3.14628ZM5.14628 7.14628L3.50003 8.79316L2.85378 8.14628C2.75996 8.05246 2.63272 7.99976 2.50003 7.99976C2.36735 7.99976 2.2401 8.05246 2.14628 8.14628C2.05246 8.2401 1.99976 8.36735 1.99976 8.50003C1.99976 8.56573 2.0127 8.63079 2.03784 8.69148C2.06298 8.75218 2.09983 8.80733 2.14628 8.85378L3.14628 9.85378C3.19272 9.90027 3.24786 9.93715 3.30856 9.96231C3.36926 9.98748 3.43433 10.0004 3.50003 10.0004C3.56574 10.0004 3.63081 9.98748 3.6915 9.96231C3.7522 9.93715 3.80735 9.90027 3.85378 9.85378L5.85378 7.85378C5.9476 7.75996 6.00031 7.63272 6.00031 7.50003C6.00031 7.36735 5.9476 7.2401 5.85378 7.14628C5.75996 7.05246 5.63272 6.99976 5.50003 6.99976C5.36735 6.99976 5.2401 7.05246 5.14628 7.14628ZM5.14628 11.1463L3.50003 12.7932L2.85378 12.1463C2.80733 12.0998 2.75218 12.063 2.69148 12.0378C2.63079 12.0127 2.56573 11.9998 2.50003 11.9998C2.43434 11.9998 2.36928 12.0127 2.30859 12.0378C2.24789 12.063 2.19274 12.0998 2.14628 12.1463C2.09983 12.1927 2.06298 12.2479 2.03784 12.3086C2.0127 12.3693 1.99976 12.4343 1.99976 12.5C1.99976 12.5657 2.0127 12.6308 2.03784 12.6915C2.06298 12.7522 2.09983 12.8073 2.14628 12.8538L3.14628 13.8538C3.19272 13.9003 3.24786 13.9372 3.30856 13.9623C3.36926 13.9875 3.43433 14.0004 3.50003 14.0004C3.56574 14.0004 3.63081 13.9875 3.6915 13.9623C3.7522 13.9372 3.80735 13.9003 3.85378 13.8538L5.85378 11.8538C5.9476 11.76 6.00031 11.6327 6.00031 11.5C6.00031 11.3674 5.9476 11.2401 5.85378 11.1463C5.75996 11.0525 5.63272 10.9998 5.50003 10.9998C5.36735 10.9998 5.2401 11.0525 5.14628 11.1463Z" fill="white"/>
</svg>
