<svg width="16" height="17" viewBox="0 0 16 17" fill="none" xmlns="http://www.w3.org/2000/svg">
<path d="M5.50004 2.00004V1.50004C5.50004 1.36743 5.55272 1.24026 5.64649 1.14649C5.74026 1.05272 5.86743 1.00004 6.00004 1.00004C6.13265 1.00004 6.25983 1.05272 6.35359 1.14649C6.44736 1.24026 6.50004 1.36743 6.50004 1.50004V2.00004C6.50004 2.13265 6.44736 2.25983 6.35359 2.35359C6.25983 2.44736 6.13265 2.50004 6.00004 2.50004C5.86743 2.50004 5.74026 2.44736 5.64649 2.35359C5.55272 2.25983 5.50004 2.13265 5.50004 2.00004ZM1.00004 7.00004H1.50004C1.63265 7.00004 1.75983 6.94736 1.85359 6.85359C1.94736 6.75983 2.00004 6.63265 2.00004 6.50004C2.00004 6.36743 1.94736 6.24026 1.85359 6.14649C1.75983 6.05272 1.63265 6.00004 1.50004 6.00004H1.00004C0.867433 6.00004 0.740256 6.05272 0.646488 6.14649C0.55272 6.24026 0.500041 6.36743 0.500041 6.50004C0.500041 6.63265 0.55272 6.75983 0.646488 6.85359C0.740256 6.94736 0.867433 7.00004 1.00004 7.00004ZM7.77629 2.94754C7.83505 2.97697 7.89903 2.99452 7.96458 2.9992C8.03013 3.00388 8.09596 2.99559 8.1583 2.97481C8.22064 2.95403 8.27828 2.92117 8.32791 2.87809C8.37754 2.83502 8.41819 2.78259 8.44754 2.72379L8.94754 1.72379C9.00688 1.60519 9.01668 1.46787 8.97478 1.34205C8.93288 1.21622 8.84271 1.1122 8.7241 1.05285C8.6055 0.993511 8.46818 0.983714 8.34236 1.02562C8.21653 1.06752 8.11251 1.15769 8.05317 1.27629L7.55317 2.27629C7.52372 2.33501 7.50613 2.39896 7.50141 2.46448C7.49668 2.53 7.50492 2.59581 7.52564 2.65815C7.54636 2.72049 7.57916 2.77813 7.62217 2.82779C7.66518 2.87744 7.71755 2.91814 7.77629 2.94754ZM1.77629 8.05317L0.776291 8.55317C0.65769 8.61251 0.567519 8.71653 0.525617 8.84236C0.483714 8.96818 0.493511 9.1055 0.552854 9.2241C0.612196 9.34271 0.716222 9.43288 0.842047 9.47478C0.967872 9.51668 1.10519 9.50688 1.22379 9.44754L2.22379 8.94754C2.28252 8.91816 2.33488 8.87749 2.37789 8.82788C2.4209 8.77826 2.45372 8.72065 2.47447 8.65835C2.49521 8.59605 2.50349 8.53027 2.49881 8.46477C2.49414 8.39927 2.47661 8.33533 2.44723 8.2766C2.41785 8.21788 2.37718 8.16551 2.32756 8.1225C2.27794 8.07949 2.22034 8.04668 2.15804 8.02593C2.09573 8.00518 2.02995 7.99691 1.96445 8.00158C1.89895 8.00625 1.83502 8.02378 1.77629 8.05317ZM13.7069 12C13.7998 12.0929 13.8735 12.2032 13.9237 12.3245C13.974 12.4458 13.9999 12.5759 13.9999 12.7072C13.9999 12.8386 13.974 12.9686 13.9237 13.09C13.8735 13.2113 13.7998 13.3216 13.7069 13.4144L12.9144 14.2069C12.8216 14.2998 12.7113 14.3735 12.59 14.4237C12.4686 14.474 12.3386 14.4999 12.2072 14.4999C12.0759 14.4999 11.9458 14.474 11.8245 14.4237C11.7032 14.3735 11.5929 14.2998 11.5 14.2069L8.29379 11L7.18754 13.8807C7.18754 13.8869 7.18254 13.8938 7.17942 13.9007C7.10289 14.0791 6.97558 14.231 6.81332 14.3376C6.65107 14.4442 6.46104 14.5007 6.26692 14.5H6.21754C6.01508 14.4915 5.82014 14.4209 5.65907 14.298C5.498 14.175 5.37856 14.0056 5.31692 13.8125L2.05004 3.80754C1.99396 3.63256 1.98717 3.44552 2.03042 3.26694C2.07367 3.08836 2.16529 2.92514 2.29522 2.79522C2.42514 2.66529 2.58836 2.57367 2.76694 2.53042C2.94552 2.48717 3.13256 2.49396 3.30754 2.55004L13.3125 5.81692C13.5038 5.88088 13.6712 6.00116 13.7928 6.16196C13.9145 6.32277 13.9847 6.51659 13.9942 6.718C14.0037 6.91941 13.9521 7.11899 13.8462 7.29056C13.7403 7.46213 13.585 7.59768 13.4007 7.67942L13.3807 7.68754L10.5 8.79317L13.7069 12ZM13 12.7069L9.79317 9.50004C9.67774 9.38482 9.59224 9.24312 9.54413 9.08729C9.49601 8.93146 9.48674 8.76622 9.51713 8.60599C9.54751 8.44575 9.61662 8.29538 9.71844 8.16797C9.82026 8.04057 9.9517 7.94001 10.1013 7.87504L10.1213 7.86629L12.9932 6.76379L3.00004 3.50004L6.26254 13.4913L7.36567 10.6163C7.36567 10.6094 7.37067 10.6025 7.37379 10.5957C7.43878 10.4462 7.53932 10.3149 7.66666 10.2131C7.794 10.1114 7.94428 10.0423 8.10442 10.0119C8.16626 10.0005 8.22902 9.99459 8.29192 9.99442C8.55687 9.99471 8.81088 10.1001 8.99817 10.2875L12.2069 13.5L13 12.7069Z" fill="white"/>
</svg>
