<svg width="16" height="17" viewBox="0 0 16 17" fill="none" xmlns="http://www.w3.org/2000/svg">
<path d="M2.99999 4.5C2.99999 4.36739 3.05266 4.24021 3.14643 4.14645C3.2402 4.05268 3.36738 4 3.49999 4H4.49999V3C4.49999 2.86739 4.55266 2.74021 4.64643 2.64645C4.7402 2.55268 4.86738 2.5 4.99999 2.5C5.13259 2.5 5.25977 2.55268 5.35354 2.64645C5.44731 2.74021 5.49999 2.86739 5.49999 3V4H6.49999C6.63259 4 6.75977 4.05268 6.85354 4.14645C6.94731 4.24021 6.99999 4.36739 6.99999 4.5C6.99999 4.63261 6.94731 4.75979 6.85354 4.85355C6.75977 4.94732 6.63259 5 6.49999 5H5.49999V6C5.49999 6.13261 5.44731 6.25979 5.35354 6.35355C5.25977 6.44732 5.13259 6.5 4.99999 6.5C4.86738 6.5 4.7402 6.44732 4.64643 6.35355C4.55266 6.25979 4.49999 6.13261 4.49999 6V5H3.49999C3.36738 5 3.2402 4.94732 3.14643 4.85355C3.05266 4.75979 2.99999 4.63261 2.99999 4.5ZM11.5 12.5H11V12C11 11.8674 10.9473 11.7402 10.8535 11.6464C10.7598 11.5527 10.6326 11.5 10.5 11.5C10.3674 11.5 10.2402 11.5527 10.1464 11.6464C10.0527 11.7402 9.99999 11.8674 9.99999 12V12.5H9.49999C9.36738 12.5 9.2402 12.5527 9.14643 12.6464C9.05266 12.7402 8.99999 12.8674 8.99999 13C8.99999 13.1326 9.05266 13.2598 9.14643 13.3536C9.2402 13.4473 9.36738 13.5 9.49999 13.5H9.99999V14C9.99999 14.1326 10.0527 14.2598 10.1464 14.3536C10.2402 14.4473 10.3674 14.5 10.5 14.5C10.6326 14.5 10.7598 14.4473 10.8535 14.3536C10.9473 14.2598 11 14.1326 11 14V13.5H11.5C11.6326 13.5 11.7598 13.4473 11.8535 13.3536C11.9473 13.2598 12 13.1326 12 13C12 12.8674 11.9473 12.7402 11.8535 12.6464C11.7598 12.5527 11.6326 12.5 11.5 12.5ZM15 9.5H14V8.5C14 8.36739 13.9473 8.24021 13.8535 8.14645C13.7598 8.05268 13.6326 8 13.5 8C13.3674 8 13.2402 8.05268 13.1464 8.14645C13.0527 8.24021 13 8.36739 13 8.5V9.5H12C11.8674 9.5 11.7402 9.55268 11.6464 9.64645C11.5527 9.74021 11.5 9.86739 11.5 10C11.5 10.1326 11.5527 10.2598 11.6464 10.3536C11.7402 10.4473 11.8674 10.5 12 10.5H13V11.5C13 11.6326 13.0527 11.7598 13.1464 11.8536C13.2402 11.9473 13.3674 12 13.5 12C13.6326 12 13.7598 11.9473 13.8535 11.8536C13.9473 11.7598 14 11.6326 14 11.5V10.5H15C15.1326 10.5 15.2598 10.4473 15.3535 10.3536C15.4473 10.2598 15.5 10.1326 15.5 10C15.5 9.86739 15.4473 9.74021 15.3535 9.64645C15.2598 9.55268 15.1326 9.5 15 9.5ZM13.7069 5.5L4.99999 14.2069C4.81247 14.3943 4.55821 14.4995 4.29311 14.4995C4.02801 14.4995 3.77375 14.3943 3.58624 14.2069L2.29249 12.9144C2.1996 12.8215 2.12592 12.7113 2.07565 12.5899C2.02539 12.4686 1.99951 12.3385 1.99951 12.2072C1.99951 12.0758 2.02539 11.9458 2.07565 11.8245C2.12592 11.7031 2.1996 11.5929 2.29249 11.5L11 2.79312C11.0928 2.70024 11.2031 2.62656 11.3244 2.57629C11.4458 2.52602 11.5758 2.50015 11.7072 2.50015C11.8385 2.50015 11.9686 2.52602 12.0899 2.57629C12.2113 2.62656 12.3215 2.70024 12.4144 2.79312L13.7069 4.08562C13.7997 4.17849 13.8734 4.28874 13.9237 4.41008C13.974 4.53142 13.9998 4.66147 13.9998 4.79281C13.9998 4.92415 13.974 5.05421 13.9237 5.17555C13.8734 5.29689 13.7997 5.40714 13.7069 5.5ZM10.2925 7.5L8.99999 6.20687L2.99999 12.2069L4.29249 13.5L10.2925 7.5ZM13 4.79313L11.7069 3.5L9.70686 5.5L11 6.79313L13 4.79313Z" fill="white"/>
</svg>
