<svg width="16" height="17" viewBox="0 0 16 17" fill="none" xmlns="http://www.w3.org/2000/svg">
<path d="M12.3488 8.56625L9.1251 7.375L7.9376 4.14875C7.86728 3.95771 7.74005 3.79283 7.57307 3.67637C7.4061 3.5599 7.20743 3.49746 7.00385 3.49746C6.80027 3.49746 6.6016 3.5599 6.43462 3.67637C6.26765 3.79283 6.14042 3.95771 6.0701 4.14875L4.8751 7.375L1.64885 8.5625C1.45781 8.63282 1.29293 8.76005 1.17647 8.92702C1.06 9.094 0.997559 9.29267 0.997559 9.49625C0.997559 9.69983 1.06 9.8985 1.17647 10.0655C1.29293 10.2324 1.45781 10.3597 1.64885 10.43L4.8751 11.625L6.0626 14.8512C6.13292 15.0423 6.26015 15.2072 6.42712 15.3236C6.5941 15.4401 6.79277 15.5025 6.99635 15.5025C7.19993 15.5025 7.3986 15.4401 7.56557 15.3236C7.73255 15.2072 7.85978 15.0423 7.9301 14.8512L9.1251 11.625L12.3513 10.4375C12.5424 10.3672 12.7073 10.2399 12.8237 10.073C12.9402 9.906 13.0026 9.70733 13.0026 9.50375C13.0026 9.30017 12.9402 9.1015 12.8237 8.93452C12.7073 8.76755 12.5424 8.64032 12.3513 8.57L12.3488 8.56625ZM8.5626 10.7638C8.49473 10.7888 8.4331 10.8282 8.38195 10.8793C8.3308 10.9305 8.29136 10.9921 8.26635 11.06L7.0001 14.4906L5.73635 11.0625C5.71138 10.9939 5.67169 10.9316 5.62008 10.88C5.56847 10.8284 5.50618 10.7887 5.4376 10.7638L2.00947 9.5L5.4376 8.23625C5.50618 8.21128 5.56847 8.17159 5.62008 8.11998C5.67169 8.06837 5.71138 8.00608 5.73635 7.9375L7.0001 4.50938L8.26385 7.9375C8.28886 8.00537 8.3283 8.067 8.37945 8.11815C8.4306 8.1693 8.49223 8.20874 8.5601 8.23375L11.9907 9.5L8.5626 10.7638ZM9.0001 3C9.0001 2.86739 9.05278 2.74021 9.14655 2.64645C9.24031 2.55268 9.36749 2.5 9.5001 2.5H10.5001V1.5C10.5001 1.36739 10.5528 1.24021 10.6465 1.14645C10.7403 1.05268 10.8675 1 11.0001 1C11.1327 1 11.2599 1.05268 11.3537 1.14645C11.4474 1.24021 11.5001 1.36739 11.5001 1.5V2.5H12.5001C12.6327 2.5 12.7599 2.55268 12.8537 2.64645C12.9474 2.74021 13.0001 2.86739 13.0001 3C13.0001 3.13261 12.9474 3.25979 12.8537 3.35355C12.7599 3.44732 12.6327 3.5 12.5001 3.5H11.5001V4.5C11.5001 4.63261 11.4474 4.75979 11.3537 4.85355C11.2599 4.94732 11.1327 5 11.0001 5C10.8675 5 10.7403 4.94732 10.6465 4.85355C10.5528 4.75979 10.5001 4.63261 10.5001 4.5V3.5H9.5001C9.36749 3.5 9.24031 3.44732 9.14655 3.35355C9.05278 3.25979 9.0001 3.13261 9.0001 3ZM15.5001 6C15.5001 6.13261 15.4474 6.25979 15.3537 6.35355C15.2599 6.44732 15.1327 6.5 15.0001 6.5H14.5001V7C14.5001 7.13261 14.4474 7.25979 14.3537 7.35355C14.2599 7.44732 14.1327 7.5 14.0001 7.5C13.8675 7.5 13.7403 7.44732 13.6465 7.35355C13.5528 7.25979 13.5001 7.13261 13.5001 7V6.5H13.0001C12.8675 6.5 12.7403 6.44732 12.6465 6.35355C12.5528 6.25979 12.5001 6.13261 12.5001 6C12.5001 5.86739 12.5528 5.74021 12.6465 5.64645C12.7403 5.55268 12.8675 5.5 13.0001 5.5H13.5001V5C13.5001 4.86739 13.5528 4.74021 13.6465 4.64645C13.7403 4.55268 13.8675 4.5 14.0001 4.5C14.1327 4.5 14.2599 4.55268 14.3537 4.64645C14.4474 4.74021 14.5001 4.86739 14.5001 5V5.5H15.0001C15.1327 5.5 15.2599 5.55268 15.3537 5.64645C15.4474 5.74021 15.5001 5.86739 15.5001 6Z" fill="white"/>
</svg>
