<svg width="16" height="17" viewBox="0 0 16 17" fill="none" xmlns="http://www.w3.org/2000/svg">
<path d="M14.0001 4.94376C13.8824 5.00471 13.7453 5.01644 13.619 4.97635C13.4926 4.93627 13.3874 4.84767 13.3263 4.73001C12.8491 3.7872 12.1267 2.99033 11.2351 2.42314C11.1795 2.38809 11.1314 2.34245 11.0935 2.2888C11.0556 2.23516 11.0286 2.17457 11.0141 2.1105C10.9996 2.04643 10.9978 1.98012 11.0089 1.91538C11.02 1.85063 11.0438 1.78871 11.0788 1.73314C11.1139 1.67757 11.1595 1.62946 11.2132 1.59153C11.2668 1.55361 11.3274 1.52662 11.3915 1.51211C11.4556 1.4976 11.5219 1.49585 11.5866 1.50697C11.6514 1.51808 11.7133 1.54184 11.7688 1.57689C12.808 2.24222 13.6517 3.17162 14.2138 4.27001C14.2748 4.38771 14.2865 4.5248 14.2464 4.65114C14.2064 4.77747 14.1177 4.88273 14.0001 4.94376ZM2.23197 5.00001C2.32357 4.99998 2.4134 4.97477 2.49166 4.92716C2.56991 4.87955 2.63358 4.81135 2.67572 4.73001C3.15297 3.7872 3.87535 2.99033 4.76697 2.42314C4.87919 2.35236 4.95869 2.2399 4.988 2.1105C5.0173 1.9811 4.994 1.84536 4.92322 1.73314C4.85244 1.62092 4.73998 1.54141 4.61058 1.51211C4.48118 1.48281 4.34544 1.50611 4.23322 1.57689C3.1941 2.24222 2.35033 3.17162 1.78822 4.27001C1.74874 4.34621 1.72954 4.43129 1.73247 4.51706C1.73539 4.60283 1.76035 4.6864 1.80492 4.75973C1.8495 4.83307 1.9122 4.89369 1.98699 4.93577C2.06179 4.97785 2.14615 4.99998 2.23197 5.00001ZM13.8632 11.4963C13.9518 11.6482 13.9988 11.8207 13.9994 11.9966C14 12.1724 13.9542 12.3453 13.8667 12.4978C13.7791 12.6503 13.6529 12.7771 13.5008 12.8652C13.3486 12.9534 13.1759 12.9999 13.0001 13H10.4501C10.3353 13.5652 10.0287 14.0733 9.58222 14.4382C9.13572 14.8032 8.57677 15.0025 8.00009 15.0025C7.42342 15.0025 6.86447 14.8032 6.41796 14.4382C5.97146 14.0733 5.66485 13.5652 5.55009 13H3.00009C2.82436 12.9997 2.65181 12.953 2.49985 12.8648C2.34788 12.7765 2.22186 12.6498 2.13447 12.4973C2.04708 12.3448 2.00142 12.172 2.00207 11.9963C2.00273 11.8205 2.04969 11.6481 2.13822 11.4963C2.70134 10.5244 3.00009 9.14251 3.00009 7.50001C3.00009 6.17393 3.52688 4.90216 4.46456 3.96448C5.40224 3.0268 6.67401 2.50001 8.00009 2.50001C9.32618 2.50001 10.5979 3.0268 11.5356 3.96448C12.4733 4.90216 13.0001 6.17393 13.0001 7.50001C13.0001 9.14189 13.2988 10.5238 13.8632 11.4963ZM9.41384 13H6.58634C6.68993 13.2921 6.88147 13.545 7.13463 13.7239C7.38779 13.9027 7.69014 13.9987 8.00009 13.9987C8.31005 13.9987 8.61239 13.9027 8.86555 13.7239C9.11871 13.545 9.31025 13.2921 9.41384 13ZM13.0001 12C12.3351 10.8581 12.0001 9.34439 12.0001 7.50001C12.0001 6.43915 11.5787 5.42173 10.8285 4.67159C10.0784 3.92144 9.06096 3.50001 8.00009 3.50001C6.93923 3.50001 5.92181 3.92144 5.17167 4.67159C4.42152 5.42173 4.00009 6.43915 4.00009 7.50001C4.00009 9.34501 3.66384 10.8588 3.00009 12H13.0001Z" fill="white"/>
</svg>
